<?xml version="1.0" encoding="UTF-8" standalone="no"?>
<svg
   xmlns:dc="http://purl.org/dc/elements/1.1/"
   xmlns:cc="http://creativecommons.org/ns#"
   xmlns:rdf="http://www.w3.org/1999/02/22-rdf-syntax-ns#"
   xmlns:svg="http://www.w3.org/2000/svg"
   xmlns="http://www.w3.org/2000/svg"
   xmlns:sodipodi="http://sodipodi.sourceforge.net/DTD/sodipodi-0.dtd"
   xmlns:inkscape="http://www.inkscape.org/namespaces/inkscape"
   inkscape:version="1.0rc1 (09960d6, 2020-04-09)"
   sodipodi:docname="intro-eclipse.svg"
   viewBox="0 0 332 78"
   height="78"
   width="332"
   id="svg1594"
   version="1.1">
  <metadata
     id="metadata1600">
    <rdf:RDF>
      <cc:Work
         rdf:about="">
        <dc:format>image/svg+xml</dc:format>
        <dc:type
           rdf:resource="http://purl.org/dc/dcmitype/StillImage" />
        <dc:title></dc:title>
      </cc:Work>
    </rdf:RDF>
  </metadata>
  <defs
     id="defs1598">
    <linearGradient
       gradientTransform="matrix(1,0,0,-1,0,793)"
       y2="432.21109"
       x2="131.3853"
       y1="358.5762"
       x1="131.3853"
       gradientUnits="userSpaceOnUse"
       id="SVGID_1_">
      <stop
         id="stop1504"
         style="stop-color:#473788"
         offset="0.3033" />
      <stop
         id="stop1506"
         style="stop-color:#2C2255"
         offset="0.872" />
    </linearGradient>
    <linearGradient
       gradientTransform="matrix(1,0,0,-1,0,793)"
       y2="432.21011"
       x2="131.3853"
       y1="358.5752"
       x1="131.3853"
       gradientUnits="userSpaceOnUse"
       id="SVGID_2_">
      <stop
         id="stop1511"
         style="stop-color:#473788"
         offset="0.3033" />
      <stop
         id="stop1513"
         style="stop-color:#2C2255"
         offset="0.872" />
    </linearGradient>
    <linearGradient
       gradientTransform="matrix(1,0,0,-1,0,793)"
       y2="432.2084"
       x2="131.3853"
       y1="358.57709"
       x1="131.3853"
       gradientUnits="userSpaceOnUse"
       id="SVGID_3_">
      <stop
         id="stop1518"
         style="stop-color:#473788"
         offset="0.3033" />
      <stop
         id="stop1520"
         style="stop-color:#2C2255"
         offset="0.8631" />
    </linearGradient>
  </defs>
  <sodipodi:namedview
     inkscape:current-layer="g1602"
     inkscape:window-maximized="1"
     inkscape:window-y="23"
     inkscape:window-x="0"
     inkscape:cy="39"
     inkscape:cx="172.87269"
     inkscape:zoom="1.6385542"
     showgrid="false"
     id="namedview1596"
     inkscape:window-height="1035"
     inkscape:window-width="1920"
     inkscape:pageshadow="2"
     inkscape:pageopacity="0"
     guidetolerance="10"
     gridtolerance="10"
     objecttolerance="10"
     borderopacity="1"
     bordercolor="#666666"
     pagecolor="#727272" />
  <g
     id="g1602"
     inkscape:label="Image"
     inkscape:groupmode="layer">
    <g
       transform="translate(-5.4926487,105.58088)"
       id="g2374">
      <path
         id="path1474"
         d="M 26.728607,-56.611906 H 14.897406 c 1.566518,5.373643 4.473443,10.189784 8.729256,14.446303 6.78471,6.785417 14.943038,10.173532 24.483463,10.173532 1.907096,0 3.754837,-0.142025 5.549585,-0.41265 7.186055,-1.084621 13.477563,-4.333538 18.868165,-9.760882 4.283369,-4.255106 7.210786,-9.07266 8.789316,-14.446303 h -4.801303 -7.020712 z"
         fill="#2c2255"
         inkscape:connector-curvature="0"
         style="fill:#ffffff;stroke-width:0.706593" />
      <g
         id="g1480"
         transform="matrix(0.70659345,0,0,0.70659345,-44.724949,-334.25791)"
         style="fill:#ffffff">
        <path
           id="path1476"
           d="m 91.891,370.194 h -8.747 c -0.32,1.922 -0.538,3.884 -0.637,5.896 h 10.396 5.215 75.275 6.871 c -0.1,-2.012 -0.318,-3.974 -0.641,-5.896"
           fill="#2c2255"
           inkscape:connector-curvature="0"
           style="fill:#ffffff" />
        <path
           id="path1478"
           d="m 82.507,381.565 c 0.099,2.013 0.316,3.975 0.637,5.896 h 9.094 6.893 73.648 6.846 c 0.322,-1.921 0.542,-3.883 0.642,-5.896"
           fill="#2c2255"
           inkscape:connector-curvature="0"
           style="fill:#ffffff" />
      </g>
      <path
         id="path1482"
         d="m 81.318604,-76.55056 c -1.577117,-5.388482 -4.50524,-10.227234 -8.790729,-14.51343 -5.37647,-5.376469 -11.650313,-8.602068 -18.813051,-9.6874 -1.811706,-0.27486 -3.677819,-0.41901 -5.604699,-0.41901 -9.540425,0 -17.699459,3.369748 -24.483463,10.10641 -4.257226,4.286196 -7.165564,9.124948 -8.731375,14.51343"
         fill="#2c2255"
         inkscape:connector-curvature="0"
         style="fill:#ffffff;stroke-width:0.706593" />
      <g
         id="g1486"
         transform="matrix(0.70659345,0,0,0.70659345,-44.724949,-334.25791)"
         style="fill:#ffffff">
        <path
           id="path1484"
           d="m 79.6,378.829 c 0,-25.824 19.395,-47.281 44.626,-51.055 -0.626,-0.023 -1.255,-0.048 -1.887,-0.048 -28.314,0 -51.269,22.88 -51.269,51.103 0,28.224 22.954,51.103 51.269,51.103 0.634,0 1.263,-0.024 1.891,-0.047 C 98.995,426.111 79.6,404.654 79.6,378.829 Z"
           fill="#f7941e"
           inkscape:connector-curvature="0"
           style="fill:#ffffff" />
      </g>
      <rect
         id="rect1488"
         height="9.1235342"
         width="7.205133"
         fill="#f7941e"
         y="-105.55976"
         x="203.05194"
         style="fill:#ffffff;stroke-width:0.706593" />
      <path
         id="path1490"
         d="m 142.8961,-68.014205 v 3.523075 h -33.12863 c 0.31231,4.962406 1.80747,8.739855 4.48333,11.336586 2.67658,2.59885 6.40315,3.896156 11.17973,3.896156 2.76702,0 5.44924,-0.338458 8.0481,-1.016081 2.59743,-0.677624 5.17367,-1.697238 7.73366,-3.055311 v 6.815094 c -2.58472,1.096633 -5.23444,1.931827 -7.94988,2.506994 -2.71544,0.573754 -5.46904,0.861337 -8.2622,0.861337 -6.99598,0 -12.53709,-2.035695 -16.62261,-6.109207 -4.08552,-4.072804 -6.12829,-9.578581 -6.12829,-16.522981 0,-7.178989 1.93819,-12.877666 5.81456,-17.093202 3.87637,-4.215537 9.10517,-6.324718 15.68284,-6.324718 5.90077,0 10.5664,1.899323 13.99903,5.69797 3.43405,3.795113 5.15036,8.958191 5.15036,15.484288 m -7.20513,-2.114127 c -0.053,-3.941378 -1.15599,-7.087839 -3.30898,-9.436556 -2.1544,-2.35013 -5.00621,-3.524488 -8.55614,-3.524488 -4.02051,0 -7.23834,1.135496 -9.65277,3.407194 -2.41514,2.270284 -3.80501,5.469033 -4.17032,9.592712 z"
         fill="#2c2255"
         inkscape:connector-curvature="0"
         style="fill:#ffffff;stroke-width:0.706593" />
      <path
         id="path1492"
         d="m 180.26995,-86.457 v 6.734542 c -2.03711,-1.12207 -4.07916,-1.963623 -6.12828,-2.525365 -2.05054,-0.561742 -4.11874,-0.841553 -6.20743,-0.841553 -4.67341,0 -8.30176,1.48102 -10.88507,4.443766 -2.58472,2.962747 -3.87708,7.121049 -3.87708,12.471375 0,5.351739 1.29236,9.510041 3.87708,12.472787 2.58331,2.96416 6.21166,4.443766 10.88507,4.443766 2.08869,0 4.15689,-0.279811 6.20743,-0.839433 2.0477,-0.561741 4.09117,-1.403294 6.12828,-2.526778 v 6.656111 c -2.01096,0.939769 -4.0933,1.644949 -6.24629,2.114127 -2.15511,0.470591 -4.44376,0.70518 -6.87303,0.70518 -6.60524,0 -11.85169,-2.075971 -15.74078,-6.226501 -3.89051,-4.149823 -5.83505,-9.749576 -5.83505,-16.799259 0,-7.151433 1.96362,-12.778036 5.89299,-16.876985 3.92866,-4.097535 9.31431,-6.148069 16.15202,-6.148069 2.22011,0 4.38653,0.230349 6.50136,0.686102 2.11484,0.456459 4.16396,1.142561 6.14878,2.056187"
         fill="#2c2255"
         inkscape:connector-curvature="0"
         style="fill:#ffffff;stroke-width:0.706593" />
      <rect
         id="rect1494"
         height="60.930969"
         width="7.2065468"
         fill="#2c2255"
         y="-105.21494"
         x="186.78545"
         style="fill:#ffffff;stroke-width:0.706593" />
      <path
         id="path1496"
         d="m 203.05194,-88.142226 h 7.20513 v 43.858256 h -7.20513 z"
         fill="#2c2255"
         inkscape:connector-curvature="0"
         style="fill:#ffffff;stroke-width:0.706593" />
      <path
         id="path1498"
         d="m 226.28826,-50.863062 v 23.261057 h -7.24399 v -60.540221 h 7.24399 v 6.657524 c 1.51494,-2.60945 3.42839,-4.549049 5.73754,-5.815264 2.31056,-1.264096 5.07122,-1.899323 8.28198,-1.899323 5.3263,0 9.65348,2.114127 12.98083,6.344502 3.32876,4.229669 4.99208,9.789852 4.99208,16.680552 0,6.893525 -1.66332,12.453709 -4.99208,16.681964 -3.32735,4.228256 -7.65453,6.344503 -12.98083,6.344503 -3.21076,0 -5.97142,-0.633108 -8.28198,-1.90003 -2.31056,-1.264802 -4.22401,-3.203694 -5.73754,-5.815264 m 24.51385,-15.311173 c 0,-5.299451 -1.09027,-9.45634 -3.27012,-12.471375 -2.17984,-3.015034 -5.17509,-4.522198 -8.98786,-4.522198 -3.81208,0 -6.80803,1.507164 -8.98646,4.522198 -2.17984,3.015741 -3.27082,7.171924 -3.27082,12.471375 0,5.300864 1.09098,9.459166 3.27082,12.472787 2.17843,3.016448 5.17438,4.522198 8.98646,4.522198 3.81277,0 6.80802,-1.507163 8.98786,-4.522198 2.17985,-3.013621 3.27012,-7.171923 3.27012,-12.472787"
         fill="#2c2255"
         inkscape:connector-curvature="0"
         style="fill:#ffffff;stroke-width:0.706593" />
      <path
         id="path1500"
         d="m 292.17033,-86.84916 v 6.813681 c -2.03782,-1.043639 -4.15124,-1.827251 -6.3445,-2.35013 -2.19327,-0.521466 -4.46426,-0.782199 -6.81368,-0.782199 -3.57678,0 -6.2583,0.54761 -8.0481,1.64495 -1.78839,1.095926 -2.68082,2.740876 -2.68082,4.933435 0,1.669681 0.63735,2.982531 1.9177,3.935726 1.27893,0.952488 3.84952,1.859047 7.71458,2.721798 l 2.46601,0.54761 c 5.11645,1.097339 8.75258,2.642659 10.90627,4.640905 2.15441,1.996834 3.23126,4.783638 3.23126,8.359001 0,4.072805 -1.61245,7.296284 -4.83805,9.672558 -3.22348,2.374154 -7.65453,3.56335 -13.29314,3.56335 -2.34872,0 -4.79707,-0.228936 -7.34363,-0.684689 -2.54585,-0.456459 -5.22596,-1.142561 -8.04739,-2.056187 v -7.441135 c 2.66456,1.38563 5.28673,2.422202 7.87145,3.114664 2.58472,0.691755 5.14259,1.036572 7.67502,1.036572 3.39447,0 6.00322,-0.579406 7.83188,-1.741752 1.82796,-1.163053 2.74017,-2.80023 2.74017,-4.914358 0,-1.95797 -0.65855,-3.458775 -1.97564,-4.504533 -1.31921,-1.043639 -4.21059,-2.049121 -8.67555,-3.015741 l -2.50487,-0.586473 c -4.46355,-0.939769 -7.68845,-2.381926 -9.67186,-4.326471 -1.98411,-1.944545 -2.97617,-4.613349 -2.97617,-8.00853 0,-4.125093 1.46194,-7.309003 4.38583,-9.55385 2.92388,-2.245554 7.07512,-3.369038 12.4523,-3.369038 2.66315,0 5.16873,0.195726 7.51886,0.586473 2.35083,0.394279 4.51725,0.980751 6.50207,1.764363"
         fill="#2c2255"
         inkscape:connector-curvature="0"
         style="fill:#ffffff;stroke-width:0.706593" />
      <path
         id="path1502"
         d="m 337.49265,-68.014205 v 3.523075 h -33.12864 c 0.31302,4.962406 1.80747,8.739855 4.48475,11.336586 2.67446,2.59885 6.40315,3.896156 11.17831,3.896156 2.76843,0 5.44995,-0.338458 8.0481,-1.016081 2.59814,-0.677624 5.17438,-1.697238 7.73437,-3.055311 v 6.815094 c -2.58543,1.096633 -5.23515,1.931827 -7.95059,2.506994 -2.71402,0.573754 -5.46833,0.861337 -8.26008,0.861337 -6.9981,0 -12.5385,-2.035695 -16.62261,-6.109207 -4.08693,-4.072804 -6.1297,-9.578581 -6.1297,-16.522981 0,-7.178989 1.9389,-12.877666 5.81456,-17.093202 3.87637,-4.216243 9.10658,-6.324718 15.68355,-6.324718 5.89935,0 10.5664,1.899323 13.99903,5.69797 3.43192,3.795113 5.14895,8.958191 5.14895,15.484288 m -7.20514,-2.114127 c -0.0537,-3.941378 -1.15528,-7.087839 -3.31039,-9.436556 -2.1544,-2.35013 -5.00692,-3.524488 -8.55472,-3.524488 -4.01981,0 -7.23835,1.135496 -9.65207,3.407194 -2.41514,2.270284 -3.80713,5.469033 -4.17102,9.592712 z"
         fill="#2c2255"
         inkscape:connector-curvature="0"
         style="fill:#ffffff;stroke-width:0.706593" />
      <g
         id="g1525"
         transform="matrix(0.70659345,0,0,0.70659345,-44.724949,-334.25791)"
         style="fill:#ffffff">
        <linearGradient
           gradientTransform="matrix(1,0,0,-1,0,793)"
           y2="432.21109"
           x2="131.3853"
           y1="358.5762"
           x1="131.3853"
           gradientUnits="userSpaceOnUse"
           id="linearGradient2203">
          <stop
             id="stop2199"
             style="stop-color:#473788"
             offset="0.3033" />
          <stop
             id="stop2201"
             style="stop-color:#2C2255"
             offset="0.872" />
        </linearGradient>
        <path
           id="path1509"
           d="m 164.653,376.089 c -0.164,-2.021 -0.504,-3.992 -1.012,-5.896 h -64.51 c -0.508,1.903 -0.849,3.874 -1.013,5.896 z"
           fill="url(#SVGID_1_)"
           inkscape:connector-curvature="0"
           style="fill:#ffffff" />
        <linearGradient
           gradientTransform="matrix(1,0,0,-1,0,793)"
           y2="432.21011"
           x2="131.3853"
           y1="358.5752"
           x1="131.3853"
           gradientUnits="userSpaceOnUse"
           id="linearGradient2210">
          <stop
             id="stop2206"
             style="stop-color:#473788"
             offset="0.3033" />
          <stop
             id="stop2208"
             style="stop-color:#2C2255"
             offset="0.872" />
        </linearGradient>
        <path
           id="path1516"
           d="M 164.653,381.565 H 98.119 c 0.164,2.021 0.503,3.992 1.012,5.896 h 64.511 c 0.508,-1.904 0.847,-3.875 1.011,-5.896 z"
           fill="url(#SVGID_2_)"
           inkscape:connector-curvature="0"
           style="fill:#ffffff" />
        <linearGradient
           gradientTransform="matrix(1,0,0,-1,0,793)"
           y2="432.2084"
           x2="131.3853"
           y1="358.57709"
           x1="131.3853"
           gradientUnits="userSpaceOnUse"
           id="linearGradient2217">
          <stop
             id="stop2213"
             style="stop-color:#473788"
             offset="0.3033" />
          <stop
             id="stop2215"
             style="stop-color:#2C2255"
             offset="0.8631" />
        </linearGradient>
        <path
           id="path1523"
           d="m 131.386,412.217 c 13.397,0 24.945,-7.893 30.263,-19.281 h -60.526 c 5.318,11.388 16.866,19.281 30.263,19.281 z"
           fill="url(#SVGID_3_)"
           inkscape:connector-curvature="0"
           style="fill:#ffffff" />
      </g>
    </g>
  </g>
</svg>
